<?xml version="1.0" encoding="UTF-8"?>
<svg width="112px" height="36px" viewBox="0 0 112 36" version="1.1" xmlns="http://www.w3.org/2000/svg" xmlns:xlink="http://www.w3.org/1999/xlink">
    <!-- Generator: sketchtool 53.2 (72643) - https://sketchapp.com -->
    <title>31592384-7A96-463D-8687-27A4FCAED54A</title>
    <desc>Created with sketchtool.</desc>
    <defs>
        <linearGradient x1="0.705878378%" y1="51.5126302%" x2="102.702872%" y2="48.7076477%" id="linearGradient-1">
            <stop stop-color="#1965FF" stop-opacity="0" offset="0%"></stop>
            <stop stop-color="#1965FF" offset="100%"></stop>
        </linearGradient>
        <linearGradient x1="-2.70126689%" y1="51.2943971%" x2="99.2957264%" y2="48.4908739%" id="linearGradient-2">
            <stop stop-color="#1965FF" stop-opacity="0" offset="0%"></stop>
            <stop stop-color="#1965FF" offset="100%"></stop>
        </linearGradient>
        <linearGradient x1="-7.07130284%" y1="44.7210545%" x2="98.2530657%" y2="53.5915982%" id="linearGradient-3">
            <stop stop-color="#FFFFFF" stop-opacity="0.4" offset="0%"></stop>
            <stop stop-color="#FFFFFF" offset="100%"></stop>
        </linearGradient>
        <linearGradient x1="1.7390675%" y1="46.4106798%" x2="107.063421%" y2="55.2766109%" id="linearGradient-4">
            <stop stop-color="#FFFFFF" stop-opacity="0.4" offset="0%"></stop>
            <stop stop-color="#FFFFFF" offset="100%"></stop>
        </linearGradient>
        <linearGradient x1="-46.6038648%" y1="-5.11891953%" x2="84.572016%" y2="62.6150065%" id="linearGradient-5">
            <stop stop-color="#2680FF" offset="0%"></stop>
            <stop stop-color="#247DFF" offset="20.61%"></stop>
            <stop stop-color="#2073FF" offset="37.14%"></stop>
            <stop stop-color="#1965FF" offset="50%"></stop>
            <stop stop-color="#2F61FF" offset="60.19%"></stop>
            <stop stop-color="#405EFF" offset="71.69%"></stop>
            <stop stop-color="#4A5CFF" offset="84.3%"></stop>
            <stop stop-color="#4D5BFF" offset="100%"></stop>
        </linearGradient>
        <linearGradient x1="-41.3262725%" y1="-7.0735069%" x2="211.834234%" y2="145.492954%" id="linearGradient-6">
            <stop stop-color="#2680FF" offset="0%"></stop>
            <stop stop-color="#247DFF" offset="20.61%"></stop>
            <stop stop-color="#2073FF" offset="37.14%"></stop>
            <stop stop-color="#1965FF" offset="50%"></stop>
            <stop stop-color="#2F61FF" offset="60.19%"></stop>
            <stop stop-color="#405EFF" offset="71.69%"></stop>
            <stop stop-color="#4A5CFF" offset="84.3%"></stop>
            <stop stop-color="#4D5BFF" offset="100%"></stop>
        </linearGradient>
        <linearGradient x1="-49.8263998%" y1="-1.75369676%" x2="116.993463%" y2="86.7248786%" id="linearGradient-7">
            <stop stop-color="#2680FF" offset="0%"></stop>
            <stop stop-color="#247DFF" offset="20.61%"></stop>
            <stop stop-color="#2073FF" offset="37.14%"></stop>
            <stop stop-color="#1965FF" offset="50%"></stop>
            <stop stop-color="#2F61FF" offset="60.19%"></stop>
            <stop stop-color="#405EFF" offset="71.69%"></stop>
            <stop stop-color="#4A5CFF" offset="84.3%"></stop>
            <stop stop-color="#4D5BFF" offset="100%"></stop>
        </linearGradient>
        <linearGradient x1="15.4279598%" y1="37.3816207%" x2="146.603865%" y2="105.115547%" id="linearGradient-8">
            <stop stop-color="#2680FF" offset="0%"></stop>
            <stop stop-color="#247DFF" offset="20.61%"></stop>
            <stop stop-color="#2073FF" offset="37.14%"></stop>
            <stop stop-color="#1965FF" offset="50%"></stop>
            <stop stop-color="#2F61FF" offset="60.19%"></stop>
            <stop stop-color="#405EFF" offset="71.69%"></stop>
            <stop stop-color="#4A5CFF" offset="84.3%"></stop>
            <stop stop-color="#4D5BFF" offset="100%"></stop>
        </linearGradient>
    </defs>
    <g id="new" stroke="none" stroke-width="1" fill="none" fill-rule="evenodd">
        <g id="Landing-Page-v1" transform="translate(-99.000000, -19.000000)">
            <g id="clevy-logo-color" transform="translate(99.000000, 19.000000)">
                <g id="_x38_80ce1ea-908a-4836-9cf2-e4d6d71873ed">
                    <g id="_x33_b202af3-f734-430e-885f-d8085aa97e6d">
                        <g id="d7399f92-dad0-41c2-8344-dc561f9dacd0">
                            <g id="Group" opacity="0.35" transform="translate(0.000000, 6.514001)">
                                <path d="M3.61395349,22.3825344 L3.61395349,22.3825344 L32.1023256,18.7464404 C32.1186047,18.6182962 32.124031,18.4901519 32.124031,18.3566682 L32.124031,12.1203132 L0,16.2262696 L3.61395349,22.3825344 Z" id="Path" fill="url(#linearGradient-1)"></path>
                                <path d="M28.5100775,0.0320360702 L0.0217054264,3.66813004 C0.00542635659,3.79627432 -2.2759572e-14,3.9244186 -2.2759572e-14,4.05256289 L-2.2759572e-14,10.2889179 L32.124031,6.1883009 L32.124031,6.1883009 L28.5100775,0.0320360702 L28.5100775,0.0320360702 Z" id="Path" fill="url(#linearGradient-2)"></path>
                                <path d="M3.61395349,22.3825344 L3.61395349,22.3825344 L32.1023256,18.7464404 C32.1186047,18.6182962 32.124031,18.4901519 32.124031,18.3566682 L32.124031,12.1203132 L0,16.2262696 L3.61395349,22.3825344 Z" id="Path" fill="url(#linearGradient-3)" opacity="0.4"></path>
                                <path d="M28.5100775,0.0320360702 L0.0217054264,3.66813004 C0.00542635659,3.79627432 -2.2759572e-14,3.9244186 -2.2759572e-14,4.05256289 L-2.2759572e-14,10.2889179 L32.124031,6.1883009 L32.124031,6.1883009 L28.5100775,0.0320360702 L28.5100775,0.0320360702 Z" id="Path" fill="url(#linearGradient-4)" opacity="0.4"></path>
                            </g>
                            <g id="Group" opacity="0.08" transform="translate(0.000000, 7.368296)" fill="#1965FF">
                                <path d="M11.6178295,13.8876364 C10.5,13.2629331 9.13255814,13.2629331 8.02015504,13.8983151 L7,14.4749644 L1.35658915,17.6785714 L3.61395349,21.5282392 L10.6139535,20.6365686 L11.6341085,20.05458 C13.3651163,19.0721405 13.9565891,16.8990271 12.9581395,15.195776 C12.6379845,14.6511628 12.1767442,14.1973185 11.6178295,13.8876364 Z" id="Path"></path>
                                <path d="M16.9248062,13.2095396 C17.9829457,14.7686284 20.0883721,15.2545088 21.7379845,14.3147841 L25.6449612,12.0936165 L16.9248062,13.2095396 Z" id="Path"></path>
                                <polygon id="Path" points="22.0418605 0 3.39147287 2.38134789 0 4.30885145 0 9.43996203 7.00542636 8.54295206"></polygon>
                            </g>
                            <path d="M14.3255814,34.9833887 C15.4,35.592074 16.724031,35.592074 17.7984496,34.9833887 L30.3875969,27.8340057 C31.4620155,27.2253204 32.124031,26.0933792 32.124031,24.8760085 L32.124031,18.6343142 L10.1364341,31.1230422 C9.71860465,31.3579734 9.57751938,31.8812292 9.81627907,32.2923588 C9.89224806,32.4205031 10.0007752,32.5326293 10.1364341,32.6073802 L14.3255814,34.9833887 Z" id="Path" fill="url(#linearGradient-5)"></path>
                            <path d="M11.1348837,20.519103 C10.1364341,18.8158519 7.92790698,18.2338633 6.19689922,19.2163028 L0,22.7402705 L0,24.8760085 C0,26.0987186 0.662015504,27.2253204 1.73643411,27.8340057 L3.61395349,28.9018747 L9.81085271,25.3832463 C11.5364341,24.3954675 12.1333333,22.2223541 11.1348837,20.519103 C11.1348837,20.519103 11.1348837,20.519103 11.1348837,20.519103 Z" id="Path" fill="url(#linearGradient-6)"></path>
                            <path d="M14.9767442,18.3353109 C15.9751938,20.0332226 18.1837209,20.6205505 19.9093023,19.6381111 C19.9093023,19.6381111 19.9093023,19.6381111 19.9147287,19.6381111 L32.124031,12.7023019 L32.124031,10.5665638 C32.124031,9.34385382 31.4620155,8.21725202 30.3875969,7.60856668 L28.5100775,6.54069767 L16.3007752,13.4765069 C14.5697674,14.4642857 13.9782946,16.6373991 14.9767442,18.3353109 Z" id="Path" fill="url(#linearGradient-7)"></path>
                            <path d="M0,10.5665638 L0,16.8082582 L21.9875969,4.31953014 C22.4054264,4.08459896 22.5465116,3.56134314 22.3077519,3.15021357 C22.2317829,3.02206929 22.1232558,2.90994305 21.9875969,2.83519222 L17.7984496,0.459183673 C16.724031,-0.149501661 15.4,-0.149501661 14.3255814,0.459183673 L1.73643411,7.61390603 C0.662015504,8.22259136 0,9.34919317 0,10.5665638 Z" id="Path" fill="url(#linearGradient-8)"></path>
                        </g>
                    </g>
                </g>
                <g id="Group" transform="translate(38.798450, 4.752017)" fill="#000000">
                    <path d="M68.6976744,6.55671571 L64.7906977,17.486355 L61.0139535,6.55671571 L59.7767442,6.55671571 L58.0457364,11.1432131 L62.4410853,23.2848837 C61.5186047,25.5274086 59.8527132,26.9476744 57.0689922,26.9476744 L58.2844961,30.4823208 C62.1317829,30.4823208 65.0457364,28.1223303 66.4294574,24.6464167 L66.4403101,24.6464167 L73.1906977,6.55671571 L68.6976744,6.55671571 L68.6976744,6.55671571 Z" id="Path"></path>
                    <polygon id="Path" points="48.1968992 18.105719 44.2193798 6.55671571 39.5906977 6.55671571 45.8581395 23.877551 50.1232558 23.877551 56.6728682 6.55671571 52.2666667 6.55671571"></polygon>
                    <path d="M31.3914729,6.17762221 C29.1069767,6.17762221 27.1589147,7.06395349 25.6124031,8.80457997 C24.0767442,10.5345278 23.3007752,12.7023019 23.3007752,15.2491694 C23.3007752,17.8334124 24.027907,20.0011865 25.4713178,21.6884196 C26.9255814,23.3916706 28.9170543,24.2566445 31.3914729,24.2566445 C33.0193798,24.2566445 34.4356589,23.9202658 35.5914729,23.258187 C36.7472868,22.5961082 37.7511628,21.5495966 38.575969,20.1453488 L38.7496124,19.8516849 L35.9116279,17.8707879 L35.7108527,18.2498813 C34.8317829,19.9210963 33.5891473,20.6632653 31.6790698,20.6632653 C30.4635659,20.6419079 29.3186047,20.1239915 28.5100775,19.2323208 C27.848062,18.4367584 27.4573643,17.4596583 27.3813953,16.434504 L38.744186,16.434504 L38.7984496,16.1301614 C38.9069767,15.505458 38.9612403,14.8700759 38.955814,14.2293545 C38.955814,11.9441149 38.2395349,10.011272 36.8232558,8.48421927 C35.4449612,6.97318462 33.4589147,6.12956811 31.3914729,6.17762221 Z M27.4899225,13.1134314 C27.6852713,12.0829378 28.0379845,11.3514476 28.6131783,10.7694589 C29.2426357,10.1340769 30.327907,9.73896535 31.4511628,9.73896535 C32.4116279,9.72294732 33.3286822,10.1127195 33.979845,10.8068344 C34.5658915,11.4475558 34.9348837,12.2537969 35.0271318,13.1134314 L27.4899225,13.1134314 Z" id="Shape" fill-rule="nonzero"></path>
                    <polygon id="Path" points="16.6751938 23.877551 20.8914729 23.877551 20.8914729 0.0320360702 16.6751938 0.929046037"></polygon>
                    <path d="M12.5186047,19.5366635 C11.6124031,20.1613669 10.5325581,20.4817276 9.43100775,20.4550308 C7.90620155,20.4550308 6.48992248,19.590057 5.74651163,18.8585667 C4.79147287,17.8814665 4.28682171,16.5306122 4.28682171,14.9555055 C4.28682171,13.8395823 4.82403101,12.5901756 5.71937984,11.6184148 C6.7124031,10.5772425 8.10155039,9.98457523 9.55581395,9.98457523 C10.5813953,9.97923588 11.5852713,10.2728999 12.4372093,10.8335311 L12.8496124,11.095159 L14.1953488,7.60856668 L13.8968992,7.44304699 C12.4968992,6.6741813 11.1565891,6.16160418 9.16511628,6.16160418 C6.72325581,6.11355007 4.36821705,7.06929283 2.66976744,8.79390128 C0.93875969,10.491813 -0.0162790698,12.8090888 0.0325581395,15.2171334 C0.0325581395,17.8868059 0.900775194,20.086616 2.61007752,21.757831 C4.31937984,23.429046 6.47906977,24.2726626 9.03488372,24.2726626 C10.9503876,24.2726626 12.7682171,23.7761035 14.0217054,22.9164689 L14.2713178,22.7456099 L12.9310078,19.2750356 L12.5186047,19.5366635 Z" id="Path"></path>
                </g>
            </g>
        </g>
    </g>
</svg>